<mxfile host="app.diagrams.net" modified="2021-02-17T04:27:01.966Z" agent="5.0 (Windows NT 10.0; Win64; x64) AppleWebKit/537.36 (KHTML, like Gecko) Chrome/88.0.4324.150 Safari/537.36" etag="LHckfiJYaAHXhzKN6JFx" version="14.2.4" type="github">
  <diagram id="l_bnsqz17-XgBapcTF2U" name="Page-1">
    <mxGraphModel dx="865" dy="457" grid="1" gridSize="10" guides="1" tooltips="1" connect="1" arrows="1" fold="1" page="1" pageScale="1" pageWidth="850" pageHeight="1100" math="0" shadow="0">
      <root>
        <mxCell id="0" />
        <mxCell id="1" parent="0" />
        <mxCell id="V8b60A0iQMDRcyboNpps-1" value="" style="rounded=0;whiteSpace=wrap;html=1;" vertex="1" parent="1">
          <mxGeometry x="550" y="200" width="390" height="230" as="geometry" />
        </mxCell>
        <mxCell id="V8b60A0iQMDRcyboNpps-5" style="edgeStyle=orthogonalEdgeStyle;rounded=0;orthogonalLoop=1;jettySize=auto;html=1;exitX=1;exitY=0.25;exitDx=0;exitDy=0;entryX=0;entryY=0.5;entryDx=0;entryDy=0;strokeColor=#66FFFF;" edge="1" parent="1" source="V8b60A0iQMDRcyboNpps-7" target="V8b60A0iQMDRcyboNpps-38">
          <mxGeometry relative="1" as="geometry">
            <Array as="points">
              <mxPoint x="525" y="271" />
            </Array>
          </mxGeometry>
        </mxCell>
        <mxCell id="V8b60A0iQMDRcyboNpps-6" value="G&lt;sub&gt;B&lt;/sub&gt;" style="edgeLabel;html=1;align=center;verticalAlign=middle;resizable=0;points=[];" vertex="1" connectable="0" parent="V8b60A0iQMDRcyboNpps-5">
          <mxGeometry x="-0.013" y="-1" relative="1" as="geometry">
            <mxPoint as="offset" />
          </mxGeometry>
        </mxCell>
        <mxCell id="V8b60A0iQMDRcyboNpps-7" value="GRID" style="rounded=0;whiteSpace=wrap;html=1;fontSize=12;" vertex="1" parent="1">
          <mxGeometry x="488" y="233" width="37" height="114" as="geometry" />
        </mxCell>
        <mxCell id="V8b60A0iQMDRcyboNpps-8" style="edgeStyle=orthogonalEdgeStyle;rounded=0;orthogonalLoop=1;jettySize=auto;html=1;exitX=1;exitY=0.5;exitDx=0;exitDy=0;entryX=0;entryY=0.75;entryDx=0;entryDy=0;strokeColor=#97D077;" edge="1" parent="1" source="V8b60A0iQMDRcyboNpps-10" target="V8b60A0iQMDRcyboNpps-11">
          <mxGeometry relative="1" as="geometry">
            <Array as="points">
              <mxPoint x="710" y="290" />
              <mxPoint x="855" y="289" />
            </Array>
          </mxGeometry>
        </mxCell>
        <mxCell id="V8b60A0iQMDRcyboNpps-9" value="P&lt;sub&gt;ES&lt;/sub&gt;&lt;sup&gt;L&lt;/sup&gt;" style="edgeLabel;html=1;align=center;verticalAlign=middle;resizable=0;points=[];" vertex="1" connectable="0" parent="V8b60A0iQMDRcyboNpps-8">
          <mxGeometry x="-0.0099" y="1" relative="1" as="geometry">
            <mxPoint as="offset" />
          </mxGeometry>
        </mxCell>
        <mxCell id="V8b60A0iQMDRcyboNpps-10" value="Electrical Storage&lt;br&gt;b(t)" style="rounded=0;whiteSpace=wrap;html=1;" vertex="1" parent="1">
          <mxGeometry x="641.6899999999999" y="265" width="58.38" height="50" as="geometry" />
        </mxCell>
        <mxCell id="V8b60A0iQMDRcyboNpps-11" value="Electrical &lt;br&gt;Load&lt;br&gt;EL(t)" style="shape=trapezoid;perimeter=trapezoidPerimeter;whiteSpace=wrap;html=1;fixedSize=1;fontSize=15;" vertex="1" parent="1">
          <mxGeometry x="770" y="246" width="150" height="60" as="geometry" />
        </mxCell>
        <mxCell id="V8b60A0iQMDRcyboNpps-20" style="edgeStyle=orthogonalEdgeStyle;rounded=0;orthogonalLoop=1;jettySize=auto;html=1;exitX=0;exitY=0.5;exitDx=0;exitDy=0;entryX=0.5;entryY=1;entryDx=0;entryDy=0;strokeColor=#FF9933;" edge="1" parent="1" source="V8b60A0iQMDRcyboNpps-30" target="V8b60A0iQMDRcyboNpps-41">
          <mxGeometry relative="1" as="geometry" />
        </mxCell>
        <mxCell id="V8b60A0iQMDRcyboNpps-21" value="EE&lt;sub&gt;PVT&lt;/sub&gt;&lt;sup&gt;G&lt;/sup&gt;" style="edgeLabel;html=1;align=center;verticalAlign=middle;resizable=0;points=[];" vertex="1" connectable="0" parent="V8b60A0iQMDRcyboNpps-20">
          <mxGeometry x="-0.1439" y="-1" relative="1" as="geometry">
            <mxPoint as="offset" />
          </mxGeometry>
        </mxCell>
        <mxCell id="V8b60A0iQMDRcyboNpps-22" style="edgeStyle=orthogonalEdgeStyle;rounded=0;orthogonalLoop=1;jettySize=auto;html=1;exitX=0.5;exitY=0;exitDx=0;exitDy=0;strokeColor=#FF9933;" edge="1" parent="1" source="V8b60A0iQMDRcyboNpps-30" target="V8b60A0iQMDRcyboNpps-10">
          <mxGeometry relative="1" as="geometry">
            <Array as="points">
              <mxPoint x="671" y="330" />
              <mxPoint x="671" y="330" />
            </Array>
          </mxGeometry>
        </mxCell>
        <mxCell id="V8b60A0iQMDRcyboNpps-23" value="EE&lt;sub&gt;PVT&lt;/sub&gt;&lt;sup&gt;S&lt;/sup&gt;" style="edgeLabel;html=1;align=center;verticalAlign=middle;resizable=0;points=[];" vertex="1" connectable="0" parent="V8b60A0iQMDRcyboNpps-22">
          <mxGeometry x="-0.1742" relative="1" as="geometry">
            <mxPoint as="offset" />
          </mxGeometry>
        </mxCell>
        <mxCell id="V8b60A0iQMDRcyboNpps-24" style="edgeStyle=orthogonalEdgeStyle;rounded=0;orthogonalLoop=1;jettySize=auto;html=1;exitX=1;exitY=0.5;exitDx=0;exitDy=0;strokeColor=#FF9933;entryX=0.5;entryY=1;entryDx=0;entryDy=0;" edge="1" parent="1" source="V8b60A0iQMDRcyboNpps-30" target="V8b60A0iQMDRcyboNpps-11">
          <mxGeometry relative="1" as="geometry">
            <mxPoint x="752" y="293" as="targetPoint" />
            <Array as="points">
              <mxPoint x="845" y="365" />
            </Array>
          </mxGeometry>
        </mxCell>
        <mxCell id="V8b60A0iQMDRcyboNpps-25" value="EE&lt;sub&gt;PVT&lt;/sub&gt;&lt;sup&gt;L&lt;/sup&gt;" style="edgeLabel;html=1;align=center;verticalAlign=middle;resizable=0;points=[];" vertex="1" connectable="0" parent="V8b60A0iQMDRcyboNpps-24">
          <mxGeometry x="-0.3171" y="-1" relative="1" as="geometry">
            <mxPoint y="-13.14" as="offset" />
          </mxGeometry>
        </mxCell>
        <mxCell id="V8b60A0iQMDRcyboNpps-30" value="PV(t)" style="shape=process;whiteSpace=wrap;html=1;backgroundOutline=1;fontSize=15;" vertex="1" parent="1">
          <mxGeometry x="621.3800000000001" y="340" width="99" height="50.25" as="geometry" />
        </mxCell>
        <mxCell id="V8b60A0iQMDRcyboNpps-34" style="edgeStyle=orthogonalEdgeStyle;rounded=0;orthogonalLoop=1;jettySize=auto;html=1;exitX=0.5;exitY=0;exitDx=0;exitDy=0;entryX=0;entryY=0.25;entryDx=0;entryDy=0;strokeColor=#3333FF;" edge="1" parent="1" source="V8b60A0iQMDRcyboNpps-38" target="V8b60A0iQMDRcyboNpps-11">
          <mxGeometry relative="1" as="geometry">
            <Array as="points">
              <mxPoint x="568" y="250" />
              <mxPoint x="760" y="250" />
              <mxPoint x="760" y="264" />
              <mxPoint x="784" y="264" />
            </Array>
          </mxGeometry>
        </mxCell>
        <mxCell id="V8b60A0iQMDRcyboNpps-35" value="G&lt;sub&gt;B&lt;/sub&gt;&lt;sup&gt;L&lt;/sup&gt;" style="edgeLabel;html=1;align=center;verticalAlign=middle;resizable=0;points=[];" vertex="1" connectable="0" parent="V8b60A0iQMDRcyboNpps-34">
          <mxGeometry x="0.0544" y="-1" relative="1" as="geometry">
            <mxPoint as="offset" />
          </mxGeometry>
        </mxCell>
        <mxCell id="V8b60A0iQMDRcyboNpps-36" style="edgeStyle=orthogonalEdgeStyle;rounded=0;orthogonalLoop=1;jettySize=auto;html=1;exitX=1;exitY=0.5;exitDx=0;exitDy=0;entryX=0.01;entryY=0.309;entryDx=0;entryDy=0;strokeColor=#3333FF;entryPerimeter=0;" edge="1" parent="1" source="V8b60A0iQMDRcyboNpps-38" target="V8b60A0iQMDRcyboNpps-10">
          <mxGeometry relative="1" as="geometry">
            <mxPoint x="555.5" y="329" as="targetPoint" />
          </mxGeometry>
        </mxCell>
        <mxCell id="V8b60A0iQMDRcyboNpps-37" value="G&lt;sub&gt;B&lt;/sub&gt;&lt;sup&gt;S&lt;/sup&gt;" style="edgeLabel;html=1;align=center;verticalAlign=middle;resizable=0;points=[];" vertex="1" connectable="0" parent="V8b60A0iQMDRcyboNpps-36">
          <mxGeometry x="-0.3244" relative="1" as="geometry">
            <mxPoint as="offset" />
          </mxGeometry>
        </mxCell>
        <mxCell id="V8b60A0iQMDRcyboNpps-38" value="" style="ellipse;whiteSpace=wrap;html=1;aspect=fixed;" vertex="1" parent="1">
          <mxGeometry x="555.5" y="258.5" width="25" height="25" as="geometry" />
        </mxCell>
        <mxCell id="V8b60A0iQMDRcyboNpps-39" style="edgeStyle=orthogonalEdgeStyle;rounded=0;orthogonalLoop=1;jettySize=auto;html=1;exitX=0;exitY=0.5;exitDx=0;exitDy=0;entryX=1;entryY=0.75;entryDx=0;entryDy=0;strokeColor=#660000;" edge="1" parent="1" source="V8b60A0iQMDRcyboNpps-41" target="V8b60A0iQMDRcyboNpps-7">
          <mxGeometry relative="1" as="geometry">
            <Array as="points">
              <mxPoint x="556" y="318" />
              <mxPoint x="525" y="318" />
            </Array>
          </mxGeometry>
        </mxCell>
        <mxCell id="V8b60A0iQMDRcyboNpps-40" value="G&lt;sub&gt;S&lt;/sub&gt;" style="edgeLabel;html=1;align=center;verticalAlign=middle;resizable=0;points=[];" vertex="1" connectable="0" parent="V8b60A0iQMDRcyboNpps-39">
          <mxGeometry x="-0.393" y="-1" relative="1" as="geometry">
            <mxPoint as="offset" />
          </mxGeometry>
        </mxCell>
        <mxCell id="V8b60A0iQMDRcyboNpps-41" value="" style="ellipse;whiteSpace=wrap;html=1;aspect=fixed;" vertex="1" parent="1">
          <mxGeometry x="555.5" y="301" width="25" height="25" as="geometry" />
        </mxCell>
        <mxCell id="V8b60A0iQMDRcyboNpps-42" style="edgeStyle=orthogonalEdgeStyle;rounded=0;orthogonalLoop=1;jettySize=auto;html=1;exitX=0;exitY=0.75;exitDx=0;exitDy=0;entryX=1;entryY=0.5;entryDx=0;entryDy=0;strokeColor=#97D077;" edge="1" parent="1" source="V8b60A0iQMDRcyboNpps-10" target="V8b60A0iQMDRcyboNpps-41">
          <mxGeometry relative="1" as="geometry">
            <mxPoint x="512.5" y="329" as="sourcePoint" />
          </mxGeometry>
        </mxCell>
        <mxCell id="V8b60A0iQMDRcyboNpps-43" value="P&lt;sub&gt;ES&lt;/sub&gt;&lt;sup&gt;G&lt;/sup&gt;" style="edgeLabel;html=1;align=center;verticalAlign=middle;resizable=0;points=[];" vertex="1" connectable="0" parent="V8b60A0iQMDRcyboNpps-42">
          <mxGeometry x="-0.2909" y="-1" relative="1" as="geometry">
            <mxPoint as="offset" />
          </mxGeometry>
        </mxCell>
        <mxCell id="V8b60A0iQMDRcyboNpps-44" value="PROSUMER" style="text;html=1;align=center;verticalAlign=middle;resizable=0;points=[];autosize=1;fontStyle=1" vertex="1" parent="1">
          <mxGeometry x="560" y="400" width="90" height="20" as="geometry" />
        </mxCell>
      </root>
    </mxGraphModel>
  </diagram>
</mxfile>
